<svg xmlns="http://www.w3.org/2000/svg" viewBox="0 0 25 23.18365"><polygon points="23.711 0.049 13.994 7.266 15.791 3.008 23.711 0.049" style="fill:#d37b35"/><path d="M13.99415,7.31447a.04884.04884,0,0,1-.045-.0678L15.7461,2.98884a.04858.04858,0,0,1,.02789-.02675l7.92-2.959A.04881.04881,0,0,1,23.7401.088l-9.71682,7.2168A.04883.04883,0,0,1,13.99415,7.31447ZM15.82788,3.0462,14.10873,7.11973,23.405.21531Z" style="fill:#d37b35"/><polygon points="1.279 0.049 10.918 7.334 9.209 3.008 1.279 0.049" style="fill:#d57b36"/><path d="M10.918,7.38285a.04868.04868,0,0,1-.02942-.00987L1.24988.0878A.04881.04881,0,0,1,1.29637.00311l7.92968,2.959a.04859.04859,0,0,1,.02833.0278l1.709,4.32621a.0488.0488,0,0,1-.04539.06675ZM1.57542.21144l9.23321,6.97877L9.17155,3.046Z" style="fill:#d57b36"/><polygon points="20.215 16.777 17.627 20.742 23.164 22.266 24.756 16.865 20.215 16.777" style="fill:#d57b36"/><path d="M23.16408,22.31447l-.013-.00171-5.537-1.52341a.0489.0489,0,0,1-.028-.07381l2.5879-3.96482a.04571.04571,0,0,1,.04187-.02212l4.54093.08783a.0488.0488,0,0,1,.04587.06266l-1.59178,5.40038A.04881.04881,0,0,1,23.16408,22.31447Zm-5.45961-1.6016,5.42633,1.493,1.56012-5.293-4.44986-.08612Z" style="fill:#d57b36"/><polygon points="0.254 16.865 1.836 22.266 7.373 20.742 4.785 16.777 0.254 16.865" style="fill:#d57b36"/><path d="M1.83587,22.31447a.04887.04887,0,0,1-.04683-.03509L.207,16.879A.04888.04888,0,0,1,.253,16.81643l4.53125-.08783a.05172.05172,0,0,1,.04186.02212L7.414,20.71554a.04889.04889,0,0,1-.02794.07381L1.84889,22.31276ZM.31871,16.91285l1.55058,5.293,5.42633-1.493L4.75908,16.82673Z" style="fill:#d57b36"/><polygon points="7.061 10.078 5.518 12.412 11.016 12.656 10.82 6.748 7.061 10.078" style="fill:#d57b36"/><path d="M11.01563,12.70513l-.00215-.00009-5.498-.24414a.0488.0488,0,0,1-.03858-.07563l1.543-2.334.00834-.00963,3.75977-3.3301a.04882.04882,0,0,1,.08116.035l.19532,5.90821a.0488.0488,0,0,1-.04878.05045Zm-5.40978-.33789,5.35923.23795L10.775,6.85352,7.09773,10.11046Z" style="fill:#d57b36"/><polygon points="17.93 10.078 14.121 6.68 13.994 12.656 19.482 12.412 17.93 10.078" style="fill:#d57b36"/><path d="M13.99415,12.70513a.04885.04885,0,0,1-.04883-.04988l.127-5.97659a.04883.04883,0,0,1,.08135-.03538l3.8086,3.39842.00811.00935,1.55278,2.334a.04874.04874,0,0,1-.03844.07582l-5.48836.24414Zm.17357-5.91842-.12365,5.81848,5.34994-.23795-1.50147-2.25687Z" style="fill:#d57b36"/><polygon points="7.373 20.742 10.674 19.131 7.822 16.904 7.373 20.742" style="fill:#d57b36"/><path d="M7.37306,20.79107a.04879.04879,0,0,1-.0485-.05455l.44923-3.83788a.0489.0489,0,0,1,.07854-.03281l2.85154,2.22655a.04887.04887,0,0,1-.00863.0824L7.39447,20.78611A.04839.04839,0,0,1,7.37306,20.79107Zm.48761-3.79477L7.432,20.65918l3.15023-1.5379Z" style="fill:#d57b36"/><polygon points="14.316 19.131 17.627 20.742 17.168 16.904 14.316 19.131" style="fill:#d57b36"/><path d="M17.627,20.79107a.04834.04834,0,0,1-.02137-.005l-3.31059-1.61133a.04884.04884,0,0,1-.00868-.0824L17.138,16.86583a.04879.04879,0,0,1,.07849.03271l.459,3.83788a.04879.04879,0,0,1-.04844.05465Zm-3.2189-1.66979,3.15977,1.5379-.43812-3.66308Z" style="fill:#d57b36"/><polygon points="17.627 20.742 14.316 19.131 14.58 21.289 14.551 22.197 17.627 20.742" style="fill:#d2c1b4"/><path d="M14.55081,22.24619a.04879.04879,0,0,1-.04878-.05035l.02928-.90829L14.268,19.13682a.04875.04875,0,0,1,.06981-.04978l3.31059,1.61133a.04882.04882,0,0,1-.00048.088l-3.07623,1.45512A.04874.04874,0,0,1,14.55081,22.24619Zm-.175-3.03212.25272,2.0691-.02641.83589,2.9121-1.37749Z" style="fill:#d2c1b4"/><polygon points="7.373 20.742 10.449 22.197 10.43 21.289 10.674 19.131 7.373 20.742" style="fill:#d2c1b4"/><path d="M10.44924,22.24619a.04879.04879,0,0,1-.02089-.00467L7.35217,20.7864a.04884.04884,0,0,1-.00052-.088L10.65242,19.087a.04885.04885,0,0,1,.07.0494l-.24414,2.15817.01983.9017a.04876.04876,0,0,1-.04882.04988ZM7.48578,20.74157l2.913,1.37788-.01788-.82932.23446-2.07635Z" style="fill:#d2c1b4"/><polygon points="10.498 15.479 7.744 14.668 9.688 13.779 10.498 15.479" style="fill:#263445"/><path d="M10.49806,15.52735l-.01378-.002-2.75393-.81053a.04885.04885,0,0,1-.00653-.09126l1.9434-.88864a.04881.04881,0,0,1,.06438.02346l.81052,1.69917a.04882.04882,0,0,1-.04406.06981Zm-2.61479-.86928,2.52362.74272-.74272-1.55706Z" style="fill:#263445"/><polygon points="14.492 15.479 15.303 13.779 17.256 14.668 14.492 15.479" style="fill:#263445"/><path d="M14.49221,15.52735a.04878.04878,0,0,1-.04406-.06981l.81057-1.69917a.049.049,0,0,1,.06428-.02346l1.95308.88864a.04878.04878,0,0,1-.00648.09126l-2.76366.81053Zm.834-1.68372-.74287,1.55726,2.53282-.74282Z" style="fill:#263445"/><polygon points="7.373 20.742 7.842 16.777 4.785 16.865 7.373 20.742" style="fill:#bf662d"/><path d="M7.37306,20.79107a.04877.04877,0,0,1-.04063-.02174l-2.5879-3.877a.04884.04884,0,0,1,.03925-.07591l3.05663-.08783a.05269.05269,0,0,1,.03743.01583.049.049,0,0,1,.01244.03872L7.42155,20.748a.04881.04881,0,0,1-.0371.04177Zm-2.4983-3.87956,2.46535,3.6934.44656-3.777Z" style="fill:#bf662d"/><polygon points="17.158 16.777 17.627 20.742 20.215 16.865 17.158 16.777" style="fill:#bf662d"/><path d="M17.627,20.79107l-.01135-.00134a.04876.04876,0,0,1-.0371-.04177l-.46883-3.96481a.04883.04883,0,0,1,.0124-.03872.051.051,0,0,1,.03748-.01583l3.05672.08783a.04883.04883,0,0,1,.0392.07591l-2.5879,3.877A.04889.04889,0,0,1,17.627,20.79107Zm-.41371-3.96319.44661,3.777,2.46544-3.6934Z" style="fill:#bf662d"/><polygon points="19.482 12.412 13.994 12.656 14.502 15.479 15.313 13.779 17.266 14.668 19.482 12.412" style="fill:#bf662d"/><path d="M14.502,15.52735l-.00648-.00048a.04879.04879,0,0,1-.04158-.03967L13.94608,12.665a.04911.04911,0,0,1,.00992-.03919.04859.04859,0,0,1,.03595-.01822l5.48837-.24414a.04346.04346,0,0,1,.04682.0289.04882.04882,0,0,1-.00982.05407L17.3005,14.70223a.04891.04891,0,0,1-.055.0102l-1.90955-.8688L14.546,15.4995A.04878.04878,0,0,1,14.502,15.52735Zm-.4499-2.82479.47112,2.61813.74525-1.56232a.049.049,0,0,1,.06428-.02346l1.92209.87452,2.1059-2.143Z" style="fill:#bf662d"/><polygon points="7.744 14.668 9.697 13.779 10.498 15.479 11.016 12.656 5.518 12.412 7.744 14.668" style="fill:#bf662d"/><path d="M10.49806,15.52735a.0488.0488,0,0,1-.04415-.028l-.7803-1.65558-1.90926.8687a.04913.04913,0,0,1-.055-.01011L5.48282,12.44649a.04888.04888,0,0,1-.00987-.05416.04529.04529,0,0,1,.04678-.0289l5.498.24414a.04873.04873,0,0,1,.04587.05751l-.51756,2.82221a.04889.04889,0,0,1-.04172.03968Zm-.80085-1.79682a.04883.04883,0,0,1,.04421.028l.73605,1.56165.48-2.61765-5.3177-.23613,2.11516,2.143L9.677,13.73491A.04915.04915,0,0,1,9.69721,13.73053Z" style="fill:#bf662d"/><polygon points="5.518 12.412 7.822 16.904 7.744 14.668 5.518 12.412" style="fill:#d57a37"/><path d="M7.82229,16.95319a.04875.04875,0,0,1-.04344-.02651l-2.30471-4.4922a.04885.04885,0,0,1,.07821-.05665l2.22654,2.25583a.04911.04911,0,0,1,.014.03261l.07816,2.23637a.04889.04889,0,0,1-.03648.049ZM5.70613,12.67271l2.0597,4.01469L7.696,14.68878Z" style="fill:#d57a37"/><polygon points="17.266 14.668 17.168 16.904 19.482 12.412 17.266 14.668" style="fill:#d57a37"/><path d="M17.168,16.95319l-.01249-.00162a.04893.04893,0,0,1-.03634-.04931l.09766-2.23637a.04891.04891,0,0,1,.014-.03214l2.21682-2.25582a.0488.0488,0,0,1,.0782.05655l-2.31448,4.4922A.04874.04874,0,0,1,17.168,16.95319Zm.14563-2.26432-.08717,1.99538,2.06509-4.00811Z" style="fill:#d57a37"/><polygon points="11.016 12.656 10.498 15.479 11.143 18.809 11.289 14.424 11.016 12.656" style="fill:#d57a37"/><path d="M11.14256,18.85749a.04874.04874,0,0,1-.04787-.03958l-.64455-3.33014a.0477.0477,0,0,1-.00009-.018l.51756-2.82222a.04735.04735,0,0,1,.04868-.04.04888.04888,0,0,1,.04759.04139l.27347,1.76754-.146,4.39387a.0487.0487,0,0,1-.04492.047Zm-.59481-3.37926.56052,2.896.132-3.952-.22869-1.47334Z" style="fill:#d57a37"/><polygon points="13.994 12.656 13.73 14.414 13.848 18.809 14.502 15.479 13.994 12.656" style="fill:#d57a37"/><path d="M13.84771,18.85749l-.00415-.00019a.04878.04878,0,0,1-.04472-.0473l-.11716-4.39454.26416-1.7664a.04888.04888,0,0,1,.04759-.04158.048.048,0,0,1,.04878.04015l.50784,2.82221a.05017.05017,0,0,1-.00015.01812l-.65431,3.33014A.04888.04888,0,0,1,13.84771,18.85749Zm.15082-5.90116-.21972,1.465.10586,3.94574.56762-2.889Z" style="fill:#d57a37"/><polygon points="14.502 15.479 13.848 18.809 14.316 19.131 17.168 16.904 17.266 14.668 14.502 15.479" style="fill:#e7893a"/><path d="M14.31644,19.17974a.04882.04882,0,0,1-.02765-.00859L13.82,18.84891a.04882.04882,0,0,1-.02027-.04969l.65432-3.33014a.04874.04874,0,0,1,.03419-.03739l2.76371-.81053a.04885.04885,0,0,1,.06256.04893l-.09766,2.23637a.04929.04929,0,0,1-.01879.03643l-2.85159,2.22655A.0487.0487,0,0,1,14.31644,19.17974Zm-.4147-.39311.41284.28372,2.80567-2.19059.09365-2.14568-2.66972.783Z" style="fill:#e7893a"/><polygon points="7.744 14.668 7.822 16.904 10.674 19.131 11.143 18.809 10.498 15.479 7.744 14.668" style="fill:#e7893a"/><path d="M10.67383,19.17974a.04881.04881,0,0,1-.03-.0103L7.79225,16.94289a.04889.04889,0,0,1-.01874-.03681l-.07816-2.23637a.04874.04874,0,0,1,.06256-.04855l2.75394.81053a.04879.04879,0,0,1,.03414.03758l.64454,3.33014a.04867.04867,0,0,1-.02027.0495l-.46878.32224A.04882.04882,0,0,1,10.67383,19.17974ZM7.8703,16.87985l2.80539,2.1905.41289-.28381L10.45577,15.517,7.7953,14.734Z" style="fill:#e7893a"/><polygon points="14.551 22.197 14.58 21.289 14.336 21.074 10.654 21.074 10.43 21.289 10.449 22.197 7.373 20.742 8.447 21.621 10.625 23.135 14.365 23.135 16.553 21.621 17.627 20.742 14.551 22.197" style="fill:#bcac9f"/><path d="M14.36527,23.18365H10.625a.04849.04849,0,0,1-.02785-.00877L8.41943,21.6612,7.34216,20.78a.04881.04881,0,0,1,.05178-.08192l3.0048,1.42136-.01788-.82932a.04886.04886,0,0,1,.01507-.03634l.22463-.21476a.04894.04894,0,0,1,.03376-.01355H14.336a.04849.04849,0,0,1,.03223.01221l.24414.21477a.04869.04869,0,0,1,.01655.03815l-.02671.82845,3.004-1.421a.04882.04882,0,0,1,.05179.08192l-1.07427.87891L14.39307,23.175A.0492.0492,0,0,1,14.36527,23.18365Zm-3.725-.09765H14.35l2.175-1.505.76294-.62428-2.71622,1.2848a.04882.04882,0,0,1-.06966-.04568l.02851-.8853-.213-.1874H10.67392l-.195.18635.01912.88682a.04882.04882,0,0,1-.06971.04521l-2.716-1.2848.76585.62666Z" style="fill:#bcac9f"/><polygon points="14.316 19.131 13.848 18.809 11.143 18.809 10.674 19.131 10.43 21.289 10.654 21.074 14.336 21.074 14.58 21.289 14.316 19.131" style="fill:#161616"/><path d="M10.42969,21.33791a.04881.04881,0,0,1-.04855-.05436l.24415-2.15817a.04891.04891,0,0,1,.02088-.03472l.46878-.32224a.0486.0486,0,0,1,.02766-.00859h2.70505a.0486.0486,0,0,1,.02766.00859l.46878.32224a.04865.04865,0,0,1,.02079.03434l.26364,2.15817a.04877.04877,0,0,1-.08068.04253l-.23031-.20256H10.67392l-.21047.20123A.04892.04892,0,0,1,10.42969,21.33791Zm.22463-.31243H14.336a.04849.04849,0,0,1,.03223.01221l.14792.13008-.24543-2.00911-.43817-.30117H11.15777l-.43793.30108-.2265,2.00205.12722-.12159A.04894.04894,0,0,1,10.65432,21.02548Z" style="fill:#161616"/><polygon points="24.121 7.734 24.951 3.75 23.711 0.049 14.316 7.022 17.93 10.078 23.037 11.572 24.17 10.254 23.682 9.902 24.463 9.189 23.857 8.721 24.639 8.125 24.121 7.734" style="fill:#6f3f1f"/><path d="M23.03715,11.62109l-.01373-.002L17.916,10.125a.0497.0497,0,0,1-.01783-.00954L14.28492,7.05879a.04883.04883,0,0,1,.00244-.07648L23.68193.00965a.0494.0494,0,0,1,.04368-.0074.04871.04871,0,0,1,.03166.03109l1.24016,3.70118A.04811.04811,0,0,1,24.999,3.76l-.82379,3.95409.493.372a.04874.04874,0,0,1,.00019.07777l-.73071.55718.55513.42987a.04872.04872,0,0,1,.00306.07468l-.73681.67234.43945.31633a.04895.04895,0,0,1,.00849.07153l-1.13278,1.31836A.04859.04859,0,0,1,23.03715,11.62109Zm-5.08377-1.58692,5.06727,1.48239,1.07756-1.25408L23.65313,9.942a.04885.04885,0,0,1-.00439-.07572l.73834-.67377-.55943-.43321a.04876.04876,0,0,1,.00029-.07744l.73-.5567-.46626-.35186a.04854.04854,0,0,1-.0184-.04893L24.90063,3.753,23.68613.12814,14.395,7.024Z" style="fill:#6f3f1f"/><polygon points="0.049 3.75 0.879 7.734 0.352 8.125 1.133 8.721 0.537 9.189 1.318 9.902 0.83 10.254 1.953 11.572 7.061 10.078 10.674 7.022 1.279 0.049 0.049 3.75" style="fill:#6f3f1f"/><path d="M1.95312,11.62109a.04894.04894,0,0,1-.03719-.01717l-1.123-1.31836a.04885.04885,0,0,1,.00868-.07134L1.241,9.89789.5042,9.22555a.04883.04883,0,0,1,.00272-.07444l.54617-.42977L.322,8.16382a.04885.04885,0,0,1,.00053-.07806l.50225-.372L.001,3.76a.04879.04879,0,0,1,.00143-.02537L1.233.03344A.04879.04879,0,0,1,1.30839.00965l9.39452,6.97266a.04883.04883,0,0,1,.00244.07648L7.09206,10.11542a.0488.0488,0,0,1-.01779.00954L1.96681,11.61909ZM.9016,10.26258l1.06816,1.25389,5.06713-1.4823L10.59529,7.024,1.30434.12824.09932,3.75292.92668,7.72441A.0488.0488,0,0,1,.908,7.77362l-.47517.352.72961.55632a.04881.04881,0,0,1,.00057.0772l-.55046.43316.73872.67406a.04885.04885,0,0,1-.00439.07572Z" style="fill:#6f3f1f"/><polygon points="23.037 11.572 17.93 10.078 19.482 12.412 17.168 16.904 20.215 16.865 24.756 16.865 23.037 11.572" style="fill:#e7893a"/><path d="M17.168,16.95319a.0489.0489,0,0,1-.04339-.07124L19.426,12.41531l-1.53685-2.31009a.04883.04883,0,0,1,.05436-.07391l5.10741,1.49412a.04872.04872,0,0,1,.03271.03176l1.71872,5.293a.04884.04884,0,0,1-.04645.0639H20.21493l-3.04623.0391Zm.87653-6.79056,1.47858,2.22245a.049.049,0,0,1,.00276.04949l-2.27728,4.41991,2.96565-.038h4.47436l-1.68991-5.20459Z" style="fill:#e7893a"/><polygon points="7.061 10.078 1.953 11.572 0.254 16.865 4.785 16.865 7.822 16.904 5.518 12.412 7.061 10.078" style="fill:#e7893a"/><path d="M7.82229,16.95319H7.82167l-3.03713-.0391H.25391a.04883.04883,0,0,1-.04649-.0638l1.69921-5.29291a.04866.04866,0,0,1,.03276-.032L7.0468,10.03131a.04878.04878,0,0,1,.05446.07372L5.574,12.41531,7.86573,16.882a.04885.04885,0,0,1-.04344.07115ZM.32086,16.81643h4.4643l2.95668.038-2.2677-4.42a.0488.0488,0,0,1,.00272-.04921l1.46943-2.22283L1.9917,11.61184Z" style="fill:#e7893a"/><polygon points="13.994 12.656 14.316 7.022 15.801 3.008 9.209 3.008 10.674 7.022 11.016 12.656 11.133 14.434 11.143 18.809 13.848 18.809 13.867 14.434 13.994 12.656" style="fill:#e7893a"/><path d="M13.84766,18.85749h-2.705a.04884.04884,0,0,1-.04883-.04873l-.00978-4.375-.11711-1.77422-.34137-5.628-1.46241-4.007A.04882.04882,0,0,1,9.209,2.959h6.59181a.04882.04882,0,0,1,.04578.06575L14.36479,7.03157l-.32191,5.6275,0,.00067L13.9159,14.4371l-.01941,4.37175A.04885.04885,0,0,1,13.84766,18.85749Zm-2.65632-.09766h2.60773l.01932-4.32635.127-1.78032.32229-5.63442.003-.01416,1.46-3.94794H9.27879L10.7197,7.00477l.00286.01378.3418,5.6348.1172,1.77708Zm2.80281-6.10353h0Z" style="fill:#e7893a"/></svg>