<svg xmlns="http://www.w3.org/2000/svg" viewBox="0 0 25 15.32258"><path d="M5.118,2.99376a10.59812,10.59812,0,0,1,14.764,0l.49067.48041a.50356.50356,0,0,1,0,.72276L18.69419,5.8403a.265.265,0,0,1-.3691,0l-.67521-.66109a7.39351,7.39351,0,0,0-10.29973,0l-.7231.708a.265.265,0,0,1-.3691,0L4.57947,4.24381a.50354.50354,0,0,1,0-.72276ZM23.35326,6.39243,24.84711,7.855a.50355.50355,0,0,1,0,.72276l-6.73588,6.59509a.5299.5299,0,0,1-.7382,0h0l-4.78072-4.68073a.13249.13249,0,0,0-.18455,0v0L7.62715,15.17289a.5299.5299,0,0,1-.73819,0l0,0L.15289,8.57772a.50354.50354,0,0,1,0-.72276L1.64674,6.39235a.5299.5299,0,0,1,.7382,0l4.78079,4.68079a.13247.13247,0,0,0,.18455,0h0l4.78054-4.68079a.5299.5299,0,0,1,.7382,0l0,0,4.78078,4.6808a.13247.13247,0,0,0,.18455,0l4.7807-4.68071A.52991.52991,0,0,1,23.35326,6.39243Z" style="fill:#5398f4"/></svg>